<svg xmlns="http://www.w3.org/2000/svg" width="187" height="61" viewBox="0 0 187 61" version="1.1"><path d="M 8.500 5.141 C 4.650 7.361, 1.354 9.321, 1.176 9.496 C 0.703 9.961, 3.987 16.210, 5.778 18.253 C 7.056 19.710, 7.120 20.656, 6.157 23.869 C 4.715 28.683, 4.673 34.765, 6.055 38.729 C 6.979 41.379, 6.730 42.356, 4.055 46.574 C 2.375 49.224, 1.005 51.866, 1.011 52.446 C 1.028 54.025, 12.792 61, 15.439 61 C 17.450 61, 17.887 60.253, 18.906 55.071 C 19.965 49.692, 20.346 49.083, 23.024 48.495 C 24.704 48.126, 27.465 46.106, 29.434 43.807 C 32.729 39.956, 33.042 39.819, 36.095 40.883 C 37.857 41.497, 40.581 42, 42.149 42 L 45 42 45 31.500 L 45 21 42.149 21 C 40.581 21, 37.860 21.502, 36.101 22.115 C 33.069 23.172, 32.713 23.021, 29.175 19.189 C 27.124 16.968, 24.220 14.842, 22.723 14.467 C 20.924 14.015, 20 13.122, 20 11.834 C 20 8.160, 17.763 1, 16.631 1.052 C 16.009 1.081, 12.350 2.921, 8.500 5.141 M 63.228 11.838 C 62.254 12.456, 62.019 17.199, 62.228 32.073 L 62.500 51.500 74.318 51.782 L 86.135 52.065 89.568 48.632 C 92.492 45.708, 93 44.513, 93 40.555 C 93 37.029, 92.441 35.350, 90.681 33.590 C 88.420 31.329, 88.407 31.215, 90.181 29.025 C 92.474 26.193, 92.575 19.266, 90.369 16.117 C 87.794 12.440, 82.966 10.998, 73.282 11.015 C 68.452 11.024, 63.928 11.394, 63.228 11.838 M 98 31.452 L 98 52 101.500 52 L 105 52 105.046 35.250 L 105.092 18.500 110.588 35.250 L 116.084 52 121 52 L 125.915 52 128.040 44.750 C 129.209 40.763, 131.445 33.450, 133.009 28.500 L 135.853 19.500 135.926 35.750 L 136 52 139.500 52 L 143 52 143 31.500 L 143 11 137.035 11 L 131.069 11 125.824 27.250 L 120.579 43.500 115.491 27.500 L 110.403 11.500 104.202 11.202 L 98 10.905 98 31.452 M 155.500 12.340 C 151.169 14.342, 148.904 17.298, 148.311 21.721 C 147.598 27.033, 151.144 31.178, 158.792 33.975 C 168.800 37.636, 169.844 38.152, 170.452 39.736 C 172.266 44.463, 163.056 46.607, 154.921 43.352 C 150.487 41.577, 149.049 42.295, 149.015 46.299 C 148.993 48.907, 156.377 51.951, 162.790 51.978 C 172.302 52.018, 178 47.409, 178 39.675 C 178 33.810, 175.749 32.047, 161.750 26.950 C 156.935 25.197, 156 24.467, 156 22.463 C 156 18.055, 163.545 16.530, 170.654 19.500 C 172.629 20.325, 174.370 21, 174.524 21 C 174.678 21, 175.275 19.650, 175.851 17.999 C 176.825 15.205, 176.679 14.886, 173.744 13.367 C 169.454 11.149, 159.311 10.578, 155.500 12.340 M 69.667 18.667 C 69.300 19.033, 69 21.283, 69 23.667 L 69 28 75.800 28 C 79.756 28, 83.102 27.498, 83.800 26.800 C 85.709 24.891, 85.195 21.250, 82.777 19.557 C 80.556 18.001, 70.982 17.351, 69.667 18.667 M 69 40 L 69 45 76.465 45 C 82.822 45, 84.083 44.713, 84.965 43.066 C 87.894 37.592, 84.990 35, 75.929 35 L 69 35 69 40" stroke="none" fill="#0e2c62" fill-rule="evenodd"/><path d="M 0 30.500 L 0 61 6 61 C 9.300 61, 12 60.800, 12 60.556 C 12 60.312, 9.525 58.632, 6.500 56.822 C 3.475 55.013, 1 53.051, 1 52.462 C 1 51.873, 2.375 49.224, 4.055 46.574 C 6.730 42.356, 6.979 41.379, 6.055 38.729 C 4.673 34.765, 4.715 28.683, 6.157 23.869 C 7.120 20.656, 7.056 19.710, 5.778 18.253 C 4.933 17.289, 3.480 14.998, 2.550 13.162 C 1.003 10.110, 0.995 9.725, 2.458 8.662 C 6.002 6.089, 16.997 0.664, 17.550 1.216 C 17.875 1.541, 18.657 4.526, 19.289 7.850 C 20.272 13.021, 20.799 13.984, 22.941 14.521 C 24.319 14.867, 27.124 16.968, 29.175 19.189 C 32.713 23.021, 33.069 23.172, 36.101 22.115 C 37.860 21.502, 40.581 21, 42.149 21 L 45 21 45 31.500 L 45 42 42.149 42 C 40.581 42, 37.857 41.497, 36.095 40.883 C 33.042 39.819, 32.729 39.956, 29.434 43.807 C 27.485 46.083, 24.701 48.126, 23.057 48.488 C 20.515 49.046, 20 49.771, 19.069 54.114 C 18.481 56.855, 18 59.529, 18 60.055 C 18 60.658, 49.313 60.917, 102.750 60.756 L 187.500 60.500 187.765 30.250 L 188.029 -0 94.015 -0 L 0 0 0 30.500 M 0.444 31 C 0.444 47.775, 0.581 54.637, 0.748 46.250 C 0.915 37.862, 0.915 24.137, 0.748 15.750 C 0.581 7.362, 0.444 14.225, 0.444 31 M 63.228 11.838 C 62.254 12.456, 62.019 17.199, 62.228 32.073 L 62.500 51.500 74.318 51.782 L 86.135 52.065 89.568 48.632 C 92.492 45.708, 93 44.513, 93 40.555 C 93 37.029, 92.441 35.350, 90.681 33.590 C 88.420 31.329, 88.407 31.215, 90.181 29.025 C 92.474 26.193, 92.575 19.266, 90.369 16.117 C 87.794 12.440, 82.966 10.998, 73.282 11.015 C 68.452 11.024, 63.928 11.394, 63.228 11.838 M 98 31.452 L 98 52 101.500 52 L 105 52 105.046 35.250 L 105.092 18.500 110.588 35.250 L 116.084 52 121 52 L 125.915 52 128.040 44.750 C 129.209 40.763, 131.445 33.450, 133.009 28.500 L 135.853 19.500 135.926 35.750 L 136 52 139.500 52 L 143 52 143 31.500 L 143 11 137.035 11 L 131.069 11 125.824 27.250 L 120.579 43.500 115.491 27.500 L 110.403 11.500 104.202 11.202 L 98 10.905 98 31.452 M 155.500 12.340 C 151.169 14.342, 148.904 17.298, 148.311 21.721 C 147.598 27.033, 151.144 31.178, 158.792 33.975 C 168.800 37.636, 169.844 38.152, 170.452 39.736 C 172.266 44.463, 163.056 46.607, 154.921 43.352 C 150.487 41.577, 149.049 42.295, 149.015 46.299 C 148.993 48.907, 156.377 51.951, 162.790 51.978 C 172.302 52.018, 178 47.409, 178 39.675 C 178 33.810, 175.749 32.047, 161.750 26.950 C 156.935 25.197, 156 24.467, 156 22.463 C 156 18.055, 163.545 16.530, 170.654 19.500 C 172.629 20.325, 174.370 21, 174.524 21 C 174.678 21, 175.275 19.650, 175.851 17.999 C 176.825 15.205, 176.679 14.886, 173.744 13.367 C 169.454 11.149, 159.311 10.578, 155.500 12.340 M 69.667 18.667 C 69.300 19.033, 69 21.283, 69 23.667 L 69 28 75.800 28 C 79.756 28, 83.102 27.498, 83.800 26.800 C 85.709 24.891, 85.195 21.250, 82.777 19.557 C 80.556 18.001, 70.982 17.351, 69.667 18.667 M 69 40 L 69 45 76.465 45 C 82.822 45, 84.083 44.713, 84.965 43.066 C 87.894 37.592, 84.990 35, 75.929 35 L 69 35 69 40" stroke="none" fill="#f7f7f8" fill-rule="evenodd"/></svg>